<svg width="30" height="31" viewBox="0 0 30 31" fill="none" xmlns="http://www.w3.org/2000/svg">
<path d="M3.91667 31.8337C3.04583 31.8337 2.30035 31.5236 1.68021 30.9035C1.06007 30.2833 0.75 29.5378 0.75 28.667V6.50033C0.75 5.62949 1.06007 4.88401 1.68021 4.26387C2.30035 3.64373 3.04583 3.33366 3.91667 3.33366H5.5V0.166992H8.66667V3.33366H21.3333V0.166992H24.5V3.33366H26.0833C26.9542 3.33366 27.6997 3.64373 28.3198 4.26387C28.9399 4.88401 29.25 5.62949 29.25 6.50033V28.667C29.25 29.5378 28.9399 30.2833 28.3198 30.9035C27.6997 31.5236 26.9542 31.8337 26.0833 31.8337H3.91667ZM3.91667 28.667H26.0833V12.8337H3.91667V28.667ZM3.91667 9.66699H26.0833V6.50033H3.91667V9.66699Z" fill="#454545"/>
</svg>
