<svg width="27" height="27" viewBox="0 0 27 27" fill="none" xmlns="http://www.w3.org/2000/svg">
<path d="M25.0938 26.625C22.0556 26.625 19.0538 25.9627 16.0885 24.638C13.1233 23.3134 10.4253 21.4358 7.99479 19.0052C5.56424 16.5747 3.68663 13.8767 2.36198 10.9115C1.03733 7.94618 0.375 4.94444 0.375 1.90625C0.375 1.46875 0.520833 1.10417 0.8125 0.8125C1.10417 0.520833 1.46875 0.375 1.90625 0.375H7.8125C8.15278 0.375 8.4566 0.490451 8.72396 0.721354C8.99132 0.952257 9.14931 1.22569 9.19792 1.54167L10.1458 6.64583C10.1944 7.03472 10.1823 7.36285 10.1094 7.63021C10.0365 7.89757 9.90278 8.12847 9.70833 8.32292L6.17188 11.8958C6.65799 12.7951 7.23524 13.6641 7.90365 14.5026C8.57205 15.3411 9.30729 16.1493 10.1094 16.9271C10.8628 17.6806 11.6528 18.3793 12.4792 19.0234C13.3056 19.6675 14.1806 20.2569 15.1042 20.7917L18.5312 17.3646C18.75 17.1458 19.0356 16.9818 19.388 16.8724C19.7404 16.763 20.0868 16.7326 20.4271 16.7812L25.4583 17.8021C25.7986 17.8993 26.0781 18.0755 26.2969 18.3307C26.5156 18.5859 26.625 18.8715 26.625 19.1875V25.0938C26.625 25.5312 26.4792 25.8958 26.1875 26.1875C25.8958 26.4792 25.5312 26.625 25.0938 26.625ZM4.78646 9.125L7.19271 6.71875L6.57292 3.29167H3.32812C3.44965 4.28819 3.61979 5.27257 3.83854 6.24479C4.05729 7.21701 4.37326 8.17708 4.78646 9.125ZM17.8385 22.1771C18.7865 22.5903 19.7526 22.9184 20.737 23.1615C21.7214 23.4045 22.7118 23.5625 23.7083 23.6354V20.4271L20.2812 19.7344L17.8385 22.1771Z" fill="#454545"/>
</svg>
